<!--?xml version="1.0" encoding="utf-8"?-->
<!-- Generator: Adobe Illustrator 22.1.0, SVG Export Plug-In . SVG Version: 6.00 Build 0)  -->
<svg version="1.1" id="_x31__1_" xmlns="http://www.w3.org/2000/svg" xmlns:xlink="http://www.w3.org/1999/xlink" x="0px" y="0px" viewBox="0 0 800 172.5" style="enable-background:new 0 0 800 172.5;" xml:space="preserve">
<style type="text/css">
	.stblack{fill:#000000;}
</style>
<g>
	<path class="stblack" d="M780,23.4c-29.7,12.7-78.5,8.5-57.3-19.1C680.2,8.6,535.9,19.2,400,19.2S119.8,8.6,77.3,4.3C98.5,31.9,49.7,36.2,20,23.4
		c23.4,23.4,25.2,71.9,8.5,110.4c40.3-8.5,67.9,2.1,55.2,21.2c48.8-19.1,316.3-18.4,316.3-18.4s45.2-0.1,101.8,1.1
		c12.4,0.3,24.6,2.5,36.3,6.6c16,5.6,33.8,13.5,46.6,23.9c-1-4-1.4-8.1-1.2-11.9c0.4-8.8,7.9-15.6,16.7-15.2
		c52,2.7,98.5,7,116.2,13.9c-12.7-19.1,14.9-29.7,55.2-21.2C754.8,95.4,756.6,46.8,780,23.4z M745.3,123.6c-19,0-32.3,5.1-37.2,14.4
		c-0.8,1.5-1.7,3.8-2,6.5c-20.4-4.6-55.2-8.1-105.6-10.7c-0.4,0-0.8,0-1.2,0c-11.6,0-21.3,8.6-22.9,19.9c-9.9-5.9-21.9-11.3-36-16.3
		c-12.4-4.4-25.4-6.7-38.5-7c-47.3-1-87.1-1.1-98.1-1.1c-2.5,0-3.8,0-3.8,0c0,0-1.3,0-3.8,0c-41.3,0-237.2,0.8-302.3,15.2
		c-0.2-2.8-1.1-5-2-6.6c-5-9.3-18.2-14.4-37.2-14.4c-4.8,0-9.9,0.3-15.1,1c10.2-31.3,9.1-64.9-2.3-88.7c5.7,1,11.6,1.6,17.3,1.6
		c17.2,0,29.1-4.8,33.4-13.6c1.3-2.7,2.3-6.5,1.3-11.2C147,17.8,278.3,26.4,400,26.4c121.7,0,253-8.6,310.7-13.7
		c-0.9,4.7,0,8.4,1.3,11.2c4.3,8.8,16.2,13.6,33.4,13.6c5.7,0,11.5-0.5,17.3-1.6c-11.5,23.8-12.6,57.4-2.3,88.7
		C755.1,124,750.1,123.6,745.3,123.6z" style="fill: rgb(41, 41, 41);"></path>
</g>
<g font-family="noto" id="svgTXT" font-size="60"><text x="50%" y="58.7%" fill="2EDF82" text-anchor="middle" font-weight="bolder" style="fill: rgb(41, 41, 41);">text</text></g></svg>
